<mxfile host="app.diagrams.net" modified="2021-02-05T06:38:06.750Z" agent="5.0 (Windows NT 10.0; Win64; x64) AppleWebKit/537.36 (KHTML, like Gecko) Chrome/88.0.4324.104 Safari/537.36" etag="lJOXotT1YnZezognTIoh" version="13.9.9" type="github">
  <diagram id="C5RBs43oDa-KdzZeNtuy" name="Page-1">
    <mxGraphModel dx="1422" dy="762" grid="1" gridSize="10" guides="1" tooltips="1" connect="1" arrows="1" fold="1" page="1" pageScale="1" pageWidth="1169" pageHeight="827" math="0" shadow="0">
      <root>
        <mxCell id="WIyWlLk6GJQsqaUBKTNV-0" />
        <mxCell id="WIyWlLk6GJQsqaUBKTNV-1" parent="WIyWlLk6GJQsqaUBKTNV-0" />
        <mxCell id="_O_r_mw4a40JTsg38hao-18" value="" style="edgeStyle=orthogonalEdgeStyle;rounded=0;orthogonalLoop=1;jettySize=auto;html=1;entryX=0;entryY=0.5;entryDx=0;entryDy=0;" edge="1" parent="WIyWlLk6GJQsqaUBKTNV-1" source="_O_r_mw4a40JTsg38hao-1">
          <mxGeometry relative="1" as="geometry">
            <mxPoint x="260" y="345" as="targetPoint" />
          </mxGeometry>
        </mxCell>
        <mxCell id="_O_r_mw4a40JTsg38hao-1" value="单个设备" style="rounded=1;whiteSpace=wrap;html=1;" vertex="1" parent="WIyWlLk6GJQsqaUBKTNV-1">
          <mxGeometry x="90" y="330" width="100" height="30" as="geometry" />
        </mxCell>
        <mxCell id="_O_r_mw4a40JTsg38hao-19" value="点击删除" style="text;html=1;strokeColor=none;fillColor=none;align=center;verticalAlign=middle;whiteSpace=wrap;rounded=0;" vertex="1" parent="WIyWlLk6GJQsqaUBKTNV-1">
          <mxGeometry x="190" y="320" width="60" height="20" as="geometry" />
        </mxCell>
        <mxCell id="_O_r_mw4a40JTsg38hao-37" value="" style="edgeStyle=orthogonalEdgeStyle;rounded=0;orthogonalLoop=1;jettySize=auto;html=1;" edge="1" parent="WIyWlLk6GJQsqaUBKTNV-1" source="_O_r_mw4a40JTsg38hao-34" target="_O_r_mw4a40JTsg38hao-36">
          <mxGeometry relative="1" as="geometry" />
        </mxCell>
        <mxCell id="_O_r_mw4a40JTsg38hao-34" value="返回结果到前端" style="rounded=1;whiteSpace=wrap;html=1;" vertex="1" parent="WIyWlLk6GJQsqaUBKTNV-1">
          <mxGeometry x="790" y="330" width="110" height="30" as="geometry" />
        </mxCell>
        <mxCell id="_O_r_mw4a40JTsg38hao-36" value="结束" style="rounded=1;whiteSpace=wrap;html=1;" vertex="1" parent="WIyWlLk6GJQsqaUBKTNV-1">
          <mxGeometry x="920" y="330" width="50" height="30" as="geometry" />
        </mxCell>
        <mxCell id="_O_r_mw4a40JTsg38hao-45" value="" style="edgeStyle=orthogonalEdgeStyle;rounded=0;orthogonalLoop=1;jettySize=auto;html=1;" edge="1" parent="WIyWlLk6GJQsqaUBKTNV-1" source="_O_r_mw4a40JTsg38hao-42" target="_O_r_mw4a40JTsg38hao-44">
          <mxGeometry relative="1" as="geometry" />
        </mxCell>
        <mxCell id="_O_r_mw4a40JTsg38hao-42" value="弹出删除确认按钮" style="rounded=1;whiteSpace=wrap;html=1;" vertex="1" parent="WIyWlLk6GJQsqaUBKTNV-1">
          <mxGeometry x="260" y="330" width="120" height="30" as="geometry" />
        </mxCell>
        <mxCell id="_O_r_mw4a40JTsg38hao-47" value="" style="edgeStyle=orthogonalEdgeStyle;rounded=0;orthogonalLoop=1;jettySize=auto;html=1;" edge="1" parent="WIyWlLk6GJQsqaUBKTNV-1" source="_O_r_mw4a40JTsg38hao-44" target="_O_r_mw4a40JTsg38hao-46">
          <mxGeometry relative="1" as="geometry" />
        </mxCell>
        <mxCell id="_O_r_mw4a40JTsg38hao-44" value="点击确认，调用删除接口" style="rounded=1;whiteSpace=wrap;html=1;" vertex="1" parent="WIyWlLk6GJQsqaUBKTNV-1">
          <mxGeometry x="400" y="325" width="120" height="40" as="geometry" />
        </mxCell>
        <mxCell id="_O_r_mw4a40JTsg38hao-50" value="" style="edgeStyle=orthogonalEdgeStyle;rounded=0;orthogonalLoop=1;jettySize=auto;html=1;" edge="1" parent="WIyWlLk6GJQsqaUBKTNV-1" source="_O_r_mw4a40JTsg38hao-46" target="_O_r_mw4a40JTsg38hao-49">
          <mxGeometry relative="1" as="geometry" />
        </mxCell>
        <mxCell id="_O_r_mw4a40JTsg38hao-46" value="修改数据库中数据状态" style="rounded=1;whiteSpace=wrap;html=1;" vertex="1" parent="WIyWlLk6GJQsqaUBKTNV-1">
          <mxGeometry x="550" y="325" width="100" height="40" as="geometry" />
        </mxCell>
        <mxCell id="_O_r_mw4a40JTsg38hao-51" value="" style="edgeStyle=orthogonalEdgeStyle;rounded=0;orthogonalLoop=1;jettySize=auto;html=1;entryX=0.5;entryY=0;entryDx=0;entryDy=0;" edge="1" parent="WIyWlLk6GJQsqaUBKTNV-1" source="_O_r_mw4a40JTsg38hao-49" target="_O_r_mw4a40JTsg38hao-34">
          <mxGeometry relative="1" as="geometry">
            <mxPoint x="715" y="230" as="targetPoint" />
            <Array as="points">
              <mxPoint x="715" y="290" />
              <mxPoint x="845" y="290" />
            </Array>
          </mxGeometry>
        </mxCell>
        <mxCell id="_O_r_mw4a40JTsg38hao-52" value="" style="edgeStyle=orthogonalEdgeStyle;rounded=0;orthogonalLoop=1;jettySize=auto;html=1;entryX=0.5;entryY=1;entryDx=0;entryDy=0;" edge="1" parent="WIyWlLk6GJQsqaUBKTNV-1" source="_O_r_mw4a40JTsg38hao-49" target="_O_r_mw4a40JTsg38hao-34">
          <mxGeometry relative="1" as="geometry">
            <mxPoint x="715" y="460" as="targetPoint" />
            <Array as="points">
              <mxPoint x="715" y="400" />
              <mxPoint x="845" y="400" />
            </Array>
          </mxGeometry>
        </mxCell>
        <mxCell id="_O_r_mw4a40JTsg38hao-49" value="是否成功" style="rhombus;whiteSpace=wrap;html=1;" vertex="1" parent="WIyWlLk6GJQsqaUBKTNV-1">
          <mxGeometry x="680" y="310" width="70" height="70" as="geometry" />
        </mxCell>
        <mxCell id="_O_r_mw4a40JTsg38hao-53" value="是" style="text;html=1;strokeColor=none;fillColor=none;align=center;verticalAlign=middle;whiteSpace=wrap;rounded=0;" vertex="1" parent="WIyWlLk6GJQsqaUBKTNV-1">
          <mxGeometry x="760" y="290" width="40" height="20" as="geometry" />
        </mxCell>
        <mxCell id="_O_r_mw4a40JTsg38hao-55" value="否" style="text;html=1;strokeColor=none;fillColor=none;align=center;verticalAlign=middle;whiteSpace=wrap;rounded=0;" vertex="1" parent="WIyWlLk6GJQsqaUBKTNV-1">
          <mxGeometry x="760" y="380" width="40" height="20" as="geometry" />
        </mxCell>
        <mxCell id="_O_r_mw4a40JTsg38hao-57" value="" style="edgeStyle=orthogonalEdgeStyle;rounded=0;orthogonalLoop=1;jettySize=auto;html=1;entryX=0;entryY=0.5;entryDx=0;entryDy=0;" edge="1" parent="WIyWlLk6GJQsqaUBKTNV-1" source="_O_r_mw4a40JTsg38hao-58">
          <mxGeometry relative="1" as="geometry">
            <mxPoint x="260" y="565" as="targetPoint" />
          </mxGeometry>
        </mxCell>
        <mxCell id="_O_r_mw4a40JTsg38hao-58" value="单个设备" style="rounded=1;whiteSpace=wrap;html=1;" vertex="1" parent="WIyWlLk6GJQsqaUBKTNV-1">
          <mxGeometry x="90" y="550" width="100" height="30" as="geometry" />
        </mxCell>
        <mxCell id="_O_r_mw4a40JTsg38hao-59" value="点击关联" style="text;html=1;strokeColor=none;fillColor=none;align=center;verticalAlign=middle;whiteSpace=wrap;rounded=0;" vertex="1" parent="WIyWlLk6GJQsqaUBKTNV-1">
          <mxGeometry x="190" y="540" width="60" height="20" as="geometry" />
        </mxCell>
        <mxCell id="_O_r_mw4a40JTsg38hao-60" value="" style="edgeStyle=orthogonalEdgeStyle;rounded=0;orthogonalLoop=1;jettySize=auto;html=1;" edge="1" parent="WIyWlLk6GJQsqaUBKTNV-1" source="_O_r_mw4a40JTsg38hao-61" target="_O_r_mw4a40JTsg38hao-62">
          <mxGeometry relative="1" as="geometry" />
        </mxCell>
        <mxCell id="_O_r_mw4a40JTsg38hao-61" value="返回结果到前端" style="rounded=1;whiteSpace=wrap;html=1;" vertex="1" parent="WIyWlLk6GJQsqaUBKTNV-1">
          <mxGeometry x="950" y="550" width="110" height="30" as="geometry" />
        </mxCell>
        <mxCell id="_O_r_mw4a40JTsg38hao-62" value="结束" style="rounded=1;whiteSpace=wrap;html=1;" vertex="1" parent="WIyWlLk6GJQsqaUBKTNV-1">
          <mxGeometry x="1080" y="550" width="50" height="30" as="geometry" />
        </mxCell>
        <mxCell id="_O_r_mw4a40JTsg38hao-63" value="" style="edgeStyle=orthogonalEdgeStyle;rounded=0;orthogonalLoop=1;jettySize=auto;html=1;" edge="1" parent="WIyWlLk6GJQsqaUBKTNV-1" source="_O_r_mw4a40JTsg38hao-64" target="_O_r_mw4a40JTsg38hao-66">
          <mxGeometry relative="1" as="geometry" />
        </mxCell>
        <mxCell id="_O_r_mw4a40JTsg38hao-64" value="弹出关联界面" style="rounded=1;whiteSpace=wrap;html=1;" vertex="1" parent="WIyWlLk6GJQsqaUBKTNV-1">
          <mxGeometry x="260" y="550" width="120" height="30" as="geometry" />
        </mxCell>
        <mxCell id="_O_r_mw4a40JTsg38hao-65" value="" style="edgeStyle=orthogonalEdgeStyle;rounded=0;orthogonalLoop=1;jettySize=auto;html=1;" edge="1" parent="WIyWlLk6GJQsqaUBKTNV-1" source="_O_r_mw4a40JTsg38hao-66">
          <mxGeometry relative="1" as="geometry">
            <mxPoint x="550" y="565" as="targetPoint" />
          </mxGeometry>
        </mxCell>
        <mxCell id="_O_r_mw4a40JTsg38hao-66" value="选择要关联的传感器" style="rounded=1;whiteSpace=wrap;html=1;" vertex="1" parent="WIyWlLk6GJQsqaUBKTNV-1">
          <mxGeometry x="400" y="545" width="120" height="40" as="geometry" />
        </mxCell>
        <mxCell id="_O_r_mw4a40JTsg38hao-67" value="" style="edgeStyle=orthogonalEdgeStyle;rounded=0;orthogonalLoop=1;jettySize=auto;html=1;" edge="1" parent="WIyWlLk6GJQsqaUBKTNV-1" source="_O_r_mw4a40JTsg38hao-68" target="_O_r_mw4a40JTsg38hao-71">
          <mxGeometry relative="1" as="geometry" />
        </mxCell>
        <mxCell id="_O_r_mw4a40JTsg38hao-68" value="新增设备-传感器关系" style="rounded=1;whiteSpace=wrap;html=1;" vertex="1" parent="WIyWlLk6GJQsqaUBKTNV-1">
          <mxGeometry x="710" y="545" width="100" height="40" as="geometry" />
        </mxCell>
        <mxCell id="_O_r_mw4a40JTsg38hao-69" value="" style="edgeStyle=orthogonalEdgeStyle;rounded=0;orthogonalLoop=1;jettySize=auto;html=1;entryX=0.5;entryY=0;entryDx=0;entryDy=0;" edge="1" parent="WIyWlLk6GJQsqaUBKTNV-1" source="_O_r_mw4a40JTsg38hao-71" target="_O_r_mw4a40JTsg38hao-61">
          <mxGeometry relative="1" as="geometry">
            <mxPoint x="875" y="450" as="targetPoint" />
            <Array as="points">
              <mxPoint x="875" y="510" />
              <mxPoint x="1005" y="510" />
            </Array>
          </mxGeometry>
        </mxCell>
        <mxCell id="_O_r_mw4a40JTsg38hao-70" value="" style="edgeStyle=orthogonalEdgeStyle;rounded=0;orthogonalLoop=1;jettySize=auto;html=1;entryX=0.5;entryY=1;entryDx=0;entryDy=0;" edge="1" parent="WIyWlLk6GJQsqaUBKTNV-1" source="_O_r_mw4a40JTsg38hao-71" target="_O_r_mw4a40JTsg38hao-61">
          <mxGeometry relative="1" as="geometry">
            <mxPoint x="875" y="680" as="targetPoint" />
            <Array as="points">
              <mxPoint x="875" y="620" />
              <mxPoint x="1005" y="620" />
            </Array>
          </mxGeometry>
        </mxCell>
        <mxCell id="_O_r_mw4a40JTsg38hao-71" value="是否成功" style="rhombus;whiteSpace=wrap;html=1;" vertex="1" parent="WIyWlLk6GJQsqaUBKTNV-1">
          <mxGeometry x="840" y="530" width="70" height="70" as="geometry" />
        </mxCell>
        <mxCell id="_O_r_mw4a40JTsg38hao-72" value="是" style="text;html=1;strokeColor=none;fillColor=none;align=center;verticalAlign=middle;whiteSpace=wrap;rounded=0;" vertex="1" parent="WIyWlLk6GJQsqaUBKTNV-1">
          <mxGeometry x="920" y="510" width="40" height="20" as="geometry" />
        </mxCell>
        <mxCell id="_O_r_mw4a40JTsg38hao-73" value="否" style="text;html=1;strokeColor=none;fillColor=none;align=center;verticalAlign=middle;whiteSpace=wrap;rounded=0;" vertex="1" parent="WIyWlLk6GJQsqaUBKTNV-1">
          <mxGeometry x="920" y="600" width="40" height="20" as="geometry" />
        </mxCell>
        <mxCell id="_O_r_mw4a40JTsg38hao-76" value="" style="edgeStyle=orthogonalEdgeStyle;rounded=0;orthogonalLoop=1;jettySize=auto;html=1;" edge="1" parent="WIyWlLk6GJQsqaUBKTNV-1" source="_O_r_mw4a40JTsg38hao-75" target="_O_r_mw4a40JTsg38hao-68">
          <mxGeometry relative="1" as="geometry" />
        </mxCell>
        <mxCell id="_O_r_mw4a40JTsg38hao-75" value="点击提交" style="rounded=1;whiteSpace=wrap;html=1;" vertex="1" parent="WIyWlLk6GJQsqaUBKTNV-1">
          <mxGeometry x="550" y="550" width="120" height="30" as="geometry" />
        </mxCell>
        <mxCell id="_O_r_mw4a40JTsg38hao-82" value="" style="edgeStyle=orthogonalEdgeStyle;rounded=0;orthogonalLoop=1;jettySize=auto;html=1;" edge="1" parent="WIyWlLk6GJQsqaUBKTNV-1" source="_O_r_mw4a40JTsg38hao-78" target="_O_r_mw4a40JTsg38hao-81">
          <mxGeometry relative="1" as="geometry" />
        </mxCell>
        <mxCell id="_O_r_mw4a40JTsg38hao-78" value="设备详情界面" style="rounded=1;whiteSpace=wrap;html=1;" vertex="1" parent="WIyWlLk6GJQsqaUBKTNV-1">
          <mxGeometry x="90" y="730" width="100" height="30" as="geometry" />
        </mxCell>
        <mxCell id="_O_r_mw4a40JTsg38hao-86" value="" style="edgeStyle=orthogonalEdgeStyle;rounded=0;orthogonalLoop=1;jettySize=auto;html=1;" edge="1" parent="WIyWlLk6GJQsqaUBKTNV-1" source="_O_r_mw4a40JTsg38hao-81">
          <mxGeometry relative="1" as="geometry">
            <mxPoint x="370" y="745" as="targetPoint" />
          </mxGeometry>
        </mxCell>
        <mxCell id="_O_r_mw4a40JTsg38hao-81" value="进入界面，发起socket连接" style="rounded=1;whiteSpace=wrap;html=1;" vertex="1" parent="WIyWlLk6GJQsqaUBKTNV-1">
          <mxGeometry x="240" y="730" width="100" height="30" as="geometry" />
        </mxCell>
        <mxCell id="_O_r_mw4a40JTsg38hao-90" value="" style="edgeStyle=orthogonalEdgeStyle;rounded=0;orthogonalLoop=1;jettySize=auto;html=1;" edge="1" parent="WIyWlLk6GJQsqaUBKTNV-1" source="_O_r_mw4a40JTsg38hao-85" target="_O_r_mw4a40JTsg38hao-89">
          <mxGeometry relative="1" as="geometry" />
        </mxCell>
        <mxCell id="_O_r_mw4a40JTsg38hao-85" value="传入设备id，订阅相关数据" style="rounded=1;whiteSpace=wrap;html=1;" vertex="1" parent="WIyWlLk6GJQsqaUBKTNV-1">
          <mxGeometry x="520" y="730" width="100" height="30" as="geometry" />
        </mxCell>
        <mxCell id="_O_r_mw4a40JTsg38hao-94" value="" style="edgeStyle=orthogonalEdgeStyle;rounded=0;orthogonalLoop=1;jettySize=auto;html=1;" edge="1" parent="WIyWlLk6GJQsqaUBKTNV-1" source="_O_r_mw4a40JTsg38hao-89" target="_O_r_mw4a40JTsg38hao-93">
          <mxGeometry relative="1" as="geometry" />
        </mxCell>
        <mxCell id="_O_r_mw4a40JTsg38hao-89" value="数据传回给前端" style="rounded=1;whiteSpace=wrap;html=1;" vertex="1" parent="WIyWlLk6GJQsqaUBKTNV-1">
          <mxGeometry x="680" y="730" width="100" height="30" as="geometry" />
        </mxCell>
        <mxCell id="_O_r_mw4a40JTsg38hao-96" value="" style="edgeStyle=orthogonalEdgeStyle;rounded=0;orthogonalLoop=1;jettySize=auto;html=1;" edge="1" parent="WIyWlLk6GJQsqaUBKTNV-1" source="_O_r_mw4a40JTsg38hao-93" target="_O_r_mw4a40JTsg38hao-95">
          <mxGeometry relative="1" as="geometry" />
        </mxCell>
        <mxCell id="_O_r_mw4a40JTsg38hao-93" value="界面关闭断开长连接" style="rounded=1;whiteSpace=wrap;html=1;" vertex="1" parent="WIyWlLk6GJQsqaUBKTNV-1">
          <mxGeometry x="820" y="730" width="110" height="30" as="geometry" />
        </mxCell>
        <mxCell id="_O_r_mw4a40JTsg38hao-95" value="结束" style="rounded=1;whiteSpace=wrap;html=1;" vertex="1" parent="WIyWlLk6GJQsqaUBKTNV-1">
          <mxGeometry x="980" y="730" width="60" height="30" as="geometry" />
        </mxCell>
        <mxCell id="_O_r_mw4a40JTsg38hao-102" value="" style="edgeStyle=orthogonalEdgeStyle;rounded=0;orthogonalLoop=1;jettySize=auto;html=1;entryX=0.5;entryY=0;entryDx=0;entryDy=0;" edge="1" parent="WIyWlLk6GJQsqaUBKTNV-1" source="_O_r_mw4a40JTsg38hao-99" target="_O_r_mw4a40JTsg38hao-85">
          <mxGeometry relative="1" as="geometry">
            <mxPoint x="400" y="625" as="targetPoint" />
            <Array as="points">
              <mxPoint x="400" y="680" />
              <mxPoint x="570" y="680" />
            </Array>
          </mxGeometry>
        </mxCell>
        <mxCell id="_O_r_mw4a40JTsg38hao-103" value="" style="edgeStyle=orthogonalEdgeStyle;rounded=0;orthogonalLoop=1;jettySize=auto;html=1;entryX=0.5;entryY=1;entryDx=0;entryDy=0;" edge="1" parent="WIyWlLk6GJQsqaUBKTNV-1" source="_O_r_mw4a40JTsg38hao-99" target="_O_r_mw4a40JTsg38hao-85">
          <mxGeometry relative="1" as="geometry">
            <mxPoint x="400" y="860" as="targetPoint" />
            <Array as="points">
              <mxPoint x="400" y="800" />
              <mxPoint x="570" y="800" />
            </Array>
          </mxGeometry>
        </mxCell>
        <mxCell id="_O_r_mw4a40JTsg38hao-99" value="是否连接" style="rhombus;whiteSpace=wrap;html=1;" vertex="1" parent="WIyWlLk6GJQsqaUBKTNV-1">
          <mxGeometry x="370" y="705" width="60" height="75" as="geometry" />
        </mxCell>
        <mxCell id="_O_r_mw4a40JTsg38hao-104" value="是" style="text;html=1;strokeColor=none;fillColor=none;align=center;verticalAlign=middle;whiteSpace=wrap;rounded=0;" vertex="1" parent="WIyWlLk6GJQsqaUBKTNV-1">
          <mxGeometry x="460" y="685" width="40" height="20" as="geometry" />
        </mxCell>
        <mxCell id="_O_r_mw4a40JTsg38hao-105" value="否" style="text;html=1;strokeColor=none;fillColor=none;align=center;verticalAlign=middle;whiteSpace=wrap;rounded=0;" vertex="1" parent="WIyWlLk6GJQsqaUBKTNV-1">
          <mxGeometry x="460" y="780" width="40" height="20" as="geometry" />
        </mxCell>
        <mxCell id="_O_r_mw4a40JTsg38hao-107" value="" style="edgeStyle=orthogonalEdgeStyle;rounded=0;orthogonalLoop=1;jettySize=auto;html=1;entryX=0;entryY=0.5;entryDx=0;entryDy=0;" edge="1" parent="WIyWlLk6GJQsqaUBKTNV-1" source="_O_r_mw4a40JTsg38hao-108">
          <mxGeometry relative="1" as="geometry">
            <mxPoint x="260" y="945" as="targetPoint" />
          </mxGeometry>
        </mxCell>
        <mxCell id="_O_r_mw4a40JTsg38hao-108" value="单个传感器界面" style="rounded=1;whiteSpace=wrap;html=1;" vertex="1" parent="WIyWlLk6GJQsqaUBKTNV-1">
          <mxGeometry x="90" y="930" width="100" height="30" as="geometry" />
        </mxCell>
        <mxCell id="_O_r_mw4a40JTsg38hao-109" value="点击删除" style="text;html=1;strokeColor=none;fillColor=none;align=center;verticalAlign=middle;whiteSpace=wrap;rounded=0;" vertex="1" parent="WIyWlLk6GJQsqaUBKTNV-1">
          <mxGeometry x="190" y="920" width="60" height="20" as="geometry" />
        </mxCell>
        <mxCell id="_O_r_mw4a40JTsg38hao-110" value="" style="edgeStyle=orthogonalEdgeStyle;rounded=0;orthogonalLoop=1;jettySize=auto;html=1;" edge="1" parent="WIyWlLk6GJQsqaUBKTNV-1" source="_O_r_mw4a40JTsg38hao-111" target="_O_r_mw4a40JTsg38hao-112">
          <mxGeometry relative="1" as="geometry" />
        </mxCell>
        <mxCell id="_O_r_mw4a40JTsg38hao-111" value="返回结果到前端" style="rounded=1;whiteSpace=wrap;html=1;" vertex="1" parent="WIyWlLk6GJQsqaUBKTNV-1">
          <mxGeometry x="790" y="930" width="110" height="30" as="geometry" />
        </mxCell>
        <mxCell id="_O_r_mw4a40JTsg38hao-112" value="结束" style="rounded=1;whiteSpace=wrap;html=1;" vertex="1" parent="WIyWlLk6GJQsqaUBKTNV-1">
          <mxGeometry x="920" y="930" width="50" height="30" as="geometry" />
        </mxCell>
        <mxCell id="_O_r_mw4a40JTsg38hao-113" value="" style="edgeStyle=orthogonalEdgeStyle;rounded=0;orthogonalLoop=1;jettySize=auto;html=1;" edge="1" parent="WIyWlLk6GJQsqaUBKTNV-1" source="_O_r_mw4a40JTsg38hao-114" target="_O_r_mw4a40JTsg38hao-116">
          <mxGeometry relative="1" as="geometry" />
        </mxCell>
        <mxCell id="_O_r_mw4a40JTsg38hao-114" value="弹出删除确认按钮" style="rounded=1;whiteSpace=wrap;html=1;" vertex="1" parent="WIyWlLk6GJQsqaUBKTNV-1">
          <mxGeometry x="260" y="930" width="120" height="30" as="geometry" />
        </mxCell>
        <mxCell id="_O_r_mw4a40JTsg38hao-115" value="" style="edgeStyle=orthogonalEdgeStyle;rounded=0;orthogonalLoop=1;jettySize=auto;html=1;" edge="1" parent="WIyWlLk6GJQsqaUBKTNV-1" source="_O_r_mw4a40JTsg38hao-116" target="_O_r_mw4a40JTsg38hao-118">
          <mxGeometry relative="1" as="geometry" />
        </mxCell>
        <mxCell id="_O_r_mw4a40JTsg38hao-116" value="点击确认，调用删除接口" style="rounded=1;whiteSpace=wrap;html=1;" vertex="1" parent="WIyWlLk6GJQsqaUBKTNV-1">
          <mxGeometry x="400" y="925" width="120" height="40" as="geometry" />
        </mxCell>
        <mxCell id="_O_r_mw4a40JTsg38hao-117" value="" style="edgeStyle=orthogonalEdgeStyle;rounded=0;orthogonalLoop=1;jettySize=auto;html=1;" edge="1" parent="WIyWlLk6GJQsqaUBKTNV-1" source="_O_r_mw4a40JTsg38hao-118" target="_O_r_mw4a40JTsg38hao-121">
          <mxGeometry relative="1" as="geometry" />
        </mxCell>
        <mxCell id="_O_r_mw4a40JTsg38hao-118" value="修改数据库中数据状态" style="rounded=1;whiteSpace=wrap;html=1;" vertex="1" parent="WIyWlLk6GJQsqaUBKTNV-1">
          <mxGeometry x="550" y="925" width="100" height="40" as="geometry" />
        </mxCell>
        <mxCell id="_O_r_mw4a40JTsg38hao-119" value="" style="edgeStyle=orthogonalEdgeStyle;rounded=0;orthogonalLoop=1;jettySize=auto;html=1;entryX=0.5;entryY=0;entryDx=0;entryDy=0;" edge="1" parent="WIyWlLk6GJQsqaUBKTNV-1" source="_O_r_mw4a40JTsg38hao-121" target="_O_r_mw4a40JTsg38hao-111">
          <mxGeometry relative="1" as="geometry">
            <mxPoint x="715" y="830" as="targetPoint" />
            <Array as="points">
              <mxPoint x="715" y="890" />
              <mxPoint x="845" y="890" />
            </Array>
          </mxGeometry>
        </mxCell>
        <mxCell id="_O_r_mw4a40JTsg38hao-120" value="" style="edgeStyle=orthogonalEdgeStyle;rounded=0;orthogonalLoop=1;jettySize=auto;html=1;entryX=0.5;entryY=1;entryDx=0;entryDy=0;" edge="1" parent="WIyWlLk6GJQsqaUBKTNV-1" source="_O_r_mw4a40JTsg38hao-121" target="_O_r_mw4a40JTsg38hao-111">
          <mxGeometry relative="1" as="geometry">
            <mxPoint x="715" y="1060" as="targetPoint" />
            <Array as="points">
              <mxPoint x="715" y="1000" />
              <mxPoint x="845" y="1000" />
            </Array>
          </mxGeometry>
        </mxCell>
        <mxCell id="_O_r_mw4a40JTsg38hao-121" value="是否成功" style="rhombus;whiteSpace=wrap;html=1;" vertex="1" parent="WIyWlLk6GJQsqaUBKTNV-1">
          <mxGeometry x="680" y="910" width="70" height="70" as="geometry" />
        </mxCell>
        <mxCell id="_O_r_mw4a40JTsg38hao-122" value="是" style="text;html=1;strokeColor=none;fillColor=none;align=center;verticalAlign=middle;whiteSpace=wrap;rounded=0;" vertex="1" parent="WIyWlLk6GJQsqaUBKTNV-1">
          <mxGeometry x="760" y="890" width="40" height="20" as="geometry" />
        </mxCell>
        <mxCell id="_O_r_mw4a40JTsg38hao-123" value="否" style="text;html=1;strokeColor=none;fillColor=none;align=center;verticalAlign=middle;whiteSpace=wrap;rounded=0;" vertex="1" parent="WIyWlLk6GJQsqaUBKTNV-1">
          <mxGeometry x="760" y="980" width="40" height="20" as="geometry" />
        </mxCell>
        <mxCell id="_O_r_mw4a40JTsg38hao-124" value="" style="edgeStyle=orthogonalEdgeStyle;rounded=0;orthogonalLoop=1;jettySize=auto;html=1;entryX=0;entryY=0.5;entryDx=0;entryDy=0;" edge="1" parent="WIyWlLk6GJQsqaUBKTNV-1" source="_O_r_mw4a40JTsg38hao-125">
          <mxGeometry relative="1" as="geometry">
            <mxPoint x="260" y="1155" as="targetPoint" />
          </mxGeometry>
        </mxCell>
        <mxCell id="_O_r_mw4a40JTsg38hao-125" value="传感器管理界面" style="rounded=1;whiteSpace=wrap;html=1;" vertex="1" parent="WIyWlLk6GJQsqaUBKTNV-1">
          <mxGeometry x="90" y="1140" width="100" height="30" as="geometry" />
        </mxCell>
        <mxCell id="_O_r_mw4a40JTsg38hao-126" value="点击新增" style="text;html=1;strokeColor=none;fillColor=none;align=center;verticalAlign=middle;whiteSpace=wrap;rounded=0;" vertex="1" parent="WIyWlLk6GJQsqaUBKTNV-1">
          <mxGeometry x="190" y="1130" width="60" height="20" as="geometry" />
        </mxCell>
        <mxCell id="_O_r_mw4a40JTsg38hao-127" value="" style="edgeStyle=orthogonalEdgeStyle;rounded=0;orthogonalLoop=1;jettySize=auto;html=1;" edge="1" parent="WIyWlLk6GJQsqaUBKTNV-1" source="_O_r_mw4a40JTsg38hao-128" target="_O_r_mw4a40JTsg38hao-129">
          <mxGeometry relative="1" as="geometry" />
        </mxCell>
        <mxCell id="_O_r_mw4a40JTsg38hao-128" value="返回结果到前端" style="rounded=1;whiteSpace=wrap;html=1;" vertex="1" parent="WIyWlLk6GJQsqaUBKTNV-1">
          <mxGeometry x="790" y="1140" width="110" height="30" as="geometry" />
        </mxCell>
        <mxCell id="_O_r_mw4a40JTsg38hao-129" value="结束" style="rounded=1;whiteSpace=wrap;html=1;" vertex="1" parent="WIyWlLk6GJQsqaUBKTNV-1">
          <mxGeometry x="920" y="1140" width="50" height="30" as="geometry" />
        </mxCell>
        <mxCell id="_O_r_mw4a40JTsg38hao-130" value="" style="edgeStyle=orthogonalEdgeStyle;rounded=0;orthogonalLoop=1;jettySize=auto;html=1;" edge="1" parent="WIyWlLk6GJQsqaUBKTNV-1" source="_O_r_mw4a40JTsg38hao-131" target="_O_r_mw4a40JTsg38hao-133">
          <mxGeometry relative="1" as="geometry" />
        </mxCell>
        <mxCell id="_O_r_mw4a40JTsg38hao-131" value="弹出新增信息框" style="rounded=1;whiteSpace=wrap;html=1;" vertex="1" parent="WIyWlLk6GJQsqaUBKTNV-1">
          <mxGeometry x="260" y="1140" width="120" height="30" as="geometry" />
        </mxCell>
        <mxCell id="_O_r_mw4a40JTsg38hao-132" value="" style="edgeStyle=orthogonalEdgeStyle;rounded=0;orthogonalLoop=1;jettySize=auto;html=1;" edge="1" parent="WIyWlLk6GJQsqaUBKTNV-1" source="_O_r_mw4a40JTsg38hao-133" target="_O_r_mw4a40JTsg38hao-135">
          <mxGeometry relative="1" as="geometry" />
        </mxCell>
        <mxCell id="_O_r_mw4a40JTsg38hao-133" value="点击确认，调用新增接口" style="rounded=1;whiteSpace=wrap;html=1;" vertex="1" parent="WIyWlLk6GJQsqaUBKTNV-1">
          <mxGeometry x="400" y="1135" width="120" height="40" as="geometry" />
        </mxCell>
        <mxCell id="_O_r_mw4a40JTsg38hao-134" value="" style="edgeStyle=orthogonalEdgeStyle;rounded=0;orthogonalLoop=1;jettySize=auto;html=1;" edge="1" parent="WIyWlLk6GJQsqaUBKTNV-1" source="_O_r_mw4a40JTsg38hao-135" target="_O_r_mw4a40JTsg38hao-138">
          <mxGeometry relative="1" as="geometry" />
        </mxCell>
        <mxCell id="_O_r_mw4a40JTsg38hao-135" value="数据库中插入数据" style="rounded=1;whiteSpace=wrap;html=1;" vertex="1" parent="WIyWlLk6GJQsqaUBKTNV-1">
          <mxGeometry x="550" y="1135" width="100" height="40" as="geometry" />
        </mxCell>
        <mxCell id="_O_r_mw4a40JTsg38hao-136" value="" style="edgeStyle=orthogonalEdgeStyle;rounded=0;orthogonalLoop=1;jettySize=auto;html=1;entryX=0.5;entryY=0;entryDx=0;entryDy=0;" edge="1" parent="WIyWlLk6GJQsqaUBKTNV-1" source="_O_r_mw4a40JTsg38hao-138" target="_O_r_mw4a40JTsg38hao-128">
          <mxGeometry relative="1" as="geometry">
            <mxPoint x="715" y="1040" as="targetPoint" />
            <Array as="points">
              <mxPoint x="715" y="1100" />
              <mxPoint x="845" y="1100" />
            </Array>
          </mxGeometry>
        </mxCell>
        <mxCell id="_O_r_mw4a40JTsg38hao-137" value="" style="edgeStyle=orthogonalEdgeStyle;rounded=0;orthogonalLoop=1;jettySize=auto;html=1;entryX=0.5;entryY=1;entryDx=0;entryDy=0;" edge="1" parent="WIyWlLk6GJQsqaUBKTNV-1" source="_O_r_mw4a40JTsg38hao-138" target="_O_r_mw4a40JTsg38hao-128">
          <mxGeometry relative="1" as="geometry">
            <mxPoint x="715" y="1270" as="targetPoint" />
            <Array as="points">
              <mxPoint x="715" y="1210" />
              <mxPoint x="845" y="1210" />
            </Array>
          </mxGeometry>
        </mxCell>
        <mxCell id="_O_r_mw4a40JTsg38hao-138" value="是否成功" style="rhombus;whiteSpace=wrap;html=1;" vertex="1" parent="WIyWlLk6GJQsqaUBKTNV-1">
          <mxGeometry x="680" y="1120" width="70" height="70" as="geometry" />
        </mxCell>
        <mxCell id="_O_r_mw4a40JTsg38hao-139" value="是" style="text;html=1;strokeColor=none;fillColor=none;align=center;verticalAlign=middle;whiteSpace=wrap;rounded=0;" vertex="1" parent="WIyWlLk6GJQsqaUBKTNV-1">
          <mxGeometry x="760" y="1100" width="40" height="20" as="geometry" />
        </mxCell>
        <mxCell id="_O_r_mw4a40JTsg38hao-140" value="否" style="text;html=1;strokeColor=none;fillColor=none;align=center;verticalAlign=middle;whiteSpace=wrap;rounded=0;" vertex="1" parent="WIyWlLk6GJQsqaUBKTNV-1">
          <mxGeometry x="760" y="1190" width="40" height="20" as="geometry" />
        </mxCell>
        <mxCell id="_O_r_mw4a40JTsg38hao-142" value="" style="edgeStyle=orthogonalEdgeStyle;rounded=0;orthogonalLoop=1;jettySize=auto;html=1;entryX=0;entryY=0.5;entryDx=0;entryDy=0;" edge="1" parent="WIyWlLk6GJQsqaUBKTNV-1" source="_O_r_mw4a40JTsg38hao-143">
          <mxGeometry relative="1" as="geometry">
            <mxPoint x="250" y="1315" as="targetPoint" />
          </mxGeometry>
        </mxCell>
        <mxCell id="_O_r_mw4a40JTsg38hao-143" value="传感器管理界面" style="rounded=1;whiteSpace=wrap;html=1;" vertex="1" parent="WIyWlLk6GJQsqaUBKTNV-1">
          <mxGeometry x="80" y="1300" width="100" height="30" as="geometry" />
        </mxCell>
        <mxCell id="_O_r_mw4a40JTsg38hao-144" value="点击查询" style="text;html=1;strokeColor=none;fillColor=none;align=center;verticalAlign=middle;whiteSpace=wrap;rounded=0;" vertex="1" parent="WIyWlLk6GJQsqaUBKTNV-1">
          <mxGeometry x="180" y="1290" width="60" height="20" as="geometry" />
        </mxCell>
        <mxCell id="_O_r_mw4a40JTsg38hao-154" value="" style="edgeStyle=orthogonalEdgeStyle;rounded=0;orthogonalLoop=1;jettySize=auto;html=1;entryX=0.5;entryY=0;entryDx=0;entryDy=0;" edge="1" parent="WIyWlLk6GJQsqaUBKTNV-1" source="_O_r_mw4a40JTsg38hao-156">
          <mxGeometry relative="1" as="geometry">
            <mxPoint x="835" y="1300" as="targetPoint" />
            <Array as="points">
              <mxPoint x="705" y="1260" />
              <mxPoint x="835" y="1260" />
            </Array>
          </mxGeometry>
        </mxCell>
        <mxCell id="_O_r_mw4a40JTsg38hao-157" value="是" style="text;html=1;strokeColor=none;fillColor=none;align=center;verticalAlign=middle;whiteSpace=wrap;rounded=0;" vertex="1" parent="WIyWlLk6GJQsqaUBKTNV-1">
          <mxGeometry x="310" y="1231" width="40" height="20" as="geometry" />
        </mxCell>
        <mxCell id="_O_r_mw4a40JTsg38hao-160" value="" style="edgeStyle=orthogonalEdgeStyle;rounded=0;orthogonalLoop=1;jettySize=auto;html=1;entryX=0;entryY=0.5;entryDx=0;entryDy=0;" edge="1" parent="WIyWlLk6GJQsqaUBKTNV-1" source="_O_r_mw4a40JTsg38hao-159" target="_O_r_mw4a40JTsg38hao-162">
          <mxGeometry relative="1" as="geometry">
            <mxPoint x="330" y="1258" as="targetPoint" />
            <Array as="points">
              <mxPoint x="300" y="1256" />
            </Array>
          </mxGeometry>
        </mxCell>
        <mxCell id="_O_r_mw4a40JTsg38hao-166" value="" style="edgeStyle=orthogonalEdgeStyle;rounded=0;orthogonalLoop=1;jettySize=auto;html=1;entryX=0.5;entryY=1;entryDx=0;entryDy=0;" edge="1" parent="WIyWlLk6GJQsqaUBKTNV-1" source="_O_r_mw4a40JTsg38hao-159" target="_O_r_mw4a40JTsg38hao-165">
          <mxGeometry relative="1" as="geometry">
            <mxPoint x="300" y="1423.75" as="targetPoint" />
            <Array as="points">
              <mxPoint x="300" y="1370" />
              <mxPoint x="540" y="1370" />
            </Array>
          </mxGeometry>
        </mxCell>
        <mxCell id="_O_r_mw4a40JTsg38hao-159" value="是否条件查询" style="rhombus;whiteSpace=wrap;html=1;" vertex="1" parent="WIyWlLk6GJQsqaUBKTNV-1">
          <mxGeometry x="250" y="1286.25" width="100" height="57.5" as="geometry" />
        </mxCell>
        <mxCell id="_O_r_mw4a40JTsg38hao-164" value="" style="edgeStyle=orthogonalEdgeStyle;rounded=0;orthogonalLoop=1;jettySize=auto;html=1;entryX=0.5;entryY=0;entryDx=0;entryDy=0;" edge="1" parent="WIyWlLk6GJQsqaUBKTNV-1" source="_O_r_mw4a40JTsg38hao-162" target="_O_r_mw4a40JTsg38hao-165">
          <mxGeometry relative="1" as="geometry">
            <mxPoint x="570" y="1256" as="targetPoint" />
            <Array as="points">
              <mxPoint x="540" y="1256" />
            </Array>
          </mxGeometry>
        </mxCell>
        <mxCell id="_O_r_mw4a40JTsg38hao-162" value="拼接条件参数" style="rounded=1;whiteSpace=wrap;html=1;" vertex="1" parent="WIyWlLk6GJQsqaUBKTNV-1">
          <mxGeometry x="370" y="1241" width="120" height="30" as="geometry" />
        </mxCell>
        <mxCell id="_O_r_mw4a40JTsg38hao-169" value="" style="edgeStyle=orthogonalEdgeStyle;rounded=0;orthogonalLoop=1;jettySize=auto;html=1;" edge="1" parent="WIyWlLk6GJQsqaUBKTNV-1" source="_O_r_mw4a40JTsg38hao-165" target="_O_r_mw4a40JTsg38hao-168">
          <mxGeometry relative="1" as="geometry" />
        </mxCell>
        <mxCell id="_O_r_mw4a40JTsg38hao-165" value="数据库查询、封装" style="rounded=1;whiteSpace=wrap;html=1;" vertex="1" parent="WIyWlLk6GJQsqaUBKTNV-1">
          <mxGeometry x="480" y="1295" width="120" height="30" as="geometry" />
        </mxCell>
        <mxCell id="_O_r_mw4a40JTsg38hao-167" value="否" style="text;html=1;strokeColor=none;fillColor=none;align=center;verticalAlign=middle;whiteSpace=wrap;rounded=0;" vertex="1" parent="WIyWlLk6GJQsqaUBKTNV-1">
          <mxGeometry x="410" y="1343.75" width="40" height="20" as="geometry" />
        </mxCell>
        <mxCell id="_O_r_mw4a40JTsg38hao-168" value="封装json数据返回前端" style="rounded=1;whiteSpace=wrap;html=1;" vertex="1" parent="WIyWlLk6GJQsqaUBKTNV-1">
          <mxGeometry x="680" y="1290" width="100" height="40" as="geometry" />
        </mxCell>
        <mxCell id="_O_r_mw4a40JTsg38hao-172" value="结束" style="rounded=1;whiteSpace=wrap;html=1;" vertex="1" parent="WIyWlLk6GJQsqaUBKTNV-1">
          <mxGeometry x="820" y="1295" width="50" height="30" as="geometry" />
        </mxCell>
        <mxCell id="_O_r_mw4a40JTsg38hao-173" value="" style="edgeStyle=orthogonalEdgeStyle;rounded=0;orthogonalLoop=1;jettySize=auto;html=1;" edge="1" parent="WIyWlLk6GJQsqaUBKTNV-1" source="_O_r_mw4a40JTsg38hao-168" target="_O_r_mw4a40JTsg38hao-172">
          <mxGeometry relative="1" as="geometry">
            <mxPoint x="780" y="1315" as="sourcePoint" />
            <mxPoint x="870" y="1315" as="targetPoint" />
          </mxGeometry>
        </mxCell>
        <mxCell id="_O_r_mw4a40JTsg38hao-175" value="" style="edgeStyle=orthogonalEdgeStyle;rounded=0;orthogonalLoop=1;jettySize=auto;html=1;entryX=0;entryY=0.5;entryDx=0;entryDy=0;" edge="1" parent="WIyWlLk6GJQsqaUBKTNV-1" source="_O_r_mw4a40JTsg38hao-176">
          <mxGeometry relative="1" as="geometry">
            <mxPoint x="250" y="1485" as="targetPoint" />
          </mxGeometry>
        </mxCell>
        <mxCell id="_O_r_mw4a40JTsg38hao-176" value="单个传感器" style="rounded=1;whiteSpace=wrap;html=1;" vertex="1" parent="WIyWlLk6GJQsqaUBKTNV-1">
          <mxGeometry x="80" y="1470" width="100" height="30" as="geometry" />
        </mxCell>
        <mxCell id="_O_r_mw4a40JTsg38hao-177" value="点击修改" style="text;html=1;strokeColor=none;fillColor=none;align=center;verticalAlign=middle;whiteSpace=wrap;rounded=0;" vertex="1" parent="WIyWlLk6GJQsqaUBKTNV-1">
          <mxGeometry x="180" y="1460" width="60" height="20" as="geometry" />
        </mxCell>
        <mxCell id="_O_r_mw4a40JTsg38hao-178" value="" style="edgeStyle=orthogonalEdgeStyle;rounded=0;orthogonalLoop=1;jettySize=auto;html=1;" edge="1" parent="WIyWlLk6GJQsqaUBKTNV-1" source="_O_r_mw4a40JTsg38hao-179" target="_O_r_mw4a40JTsg38hao-180">
          <mxGeometry relative="1" as="geometry" />
        </mxCell>
        <mxCell id="_O_r_mw4a40JTsg38hao-179" value="返回结果到前端" style="rounded=1;whiteSpace=wrap;html=1;" vertex="1" parent="WIyWlLk6GJQsqaUBKTNV-1">
          <mxGeometry x="780" y="1470" width="110" height="30" as="geometry" />
        </mxCell>
        <mxCell id="_O_r_mw4a40JTsg38hao-180" value="结束" style="rounded=1;whiteSpace=wrap;html=1;" vertex="1" parent="WIyWlLk6GJQsqaUBKTNV-1">
          <mxGeometry x="910" y="1470" width="50" height="30" as="geometry" />
        </mxCell>
        <mxCell id="_O_r_mw4a40JTsg38hao-181" value="" style="edgeStyle=orthogonalEdgeStyle;rounded=0;orthogonalLoop=1;jettySize=auto;html=1;" edge="1" parent="WIyWlLk6GJQsqaUBKTNV-1" source="_O_r_mw4a40JTsg38hao-182" target="_O_r_mw4a40JTsg38hao-184">
          <mxGeometry relative="1" as="geometry" />
        </mxCell>
        <mxCell id="_O_r_mw4a40JTsg38hao-182" value="弹出修改信息框" style="rounded=1;whiteSpace=wrap;html=1;" vertex="1" parent="WIyWlLk6GJQsqaUBKTNV-1">
          <mxGeometry x="250" y="1470" width="120" height="30" as="geometry" />
        </mxCell>
        <mxCell id="_O_r_mw4a40JTsg38hao-183" value="" style="edgeStyle=orthogonalEdgeStyle;rounded=0;orthogonalLoop=1;jettySize=auto;html=1;" edge="1" parent="WIyWlLk6GJQsqaUBKTNV-1" source="_O_r_mw4a40JTsg38hao-184" target="_O_r_mw4a40JTsg38hao-186">
          <mxGeometry relative="1" as="geometry" />
        </mxCell>
        <mxCell id="_O_r_mw4a40JTsg38hao-184" value="点击确认，调用修改接口" style="rounded=1;whiteSpace=wrap;html=1;" vertex="1" parent="WIyWlLk6GJQsqaUBKTNV-1">
          <mxGeometry x="390" y="1465" width="120" height="40" as="geometry" />
        </mxCell>
        <mxCell id="_O_r_mw4a40JTsg38hao-185" value="" style="edgeStyle=orthogonalEdgeStyle;rounded=0;orthogonalLoop=1;jettySize=auto;html=1;" edge="1" parent="WIyWlLk6GJQsqaUBKTNV-1" source="_O_r_mw4a40JTsg38hao-186" target="_O_r_mw4a40JTsg38hao-189">
          <mxGeometry relative="1" as="geometry" />
        </mxCell>
        <mxCell id="_O_r_mw4a40JTsg38hao-186" value="修改数据库中数据" style="rounded=1;whiteSpace=wrap;html=1;" vertex="1" parent="WIyWlLk6GJQsqaUBKTNV-1">
          <mxGeometry x="540" y="1465" width="100" height="40" as="geometry" />
        </mxCell>
        <mxCell id="_O_r_mw4a40JTsg38hao-187" value="" style="edgeStyle=orthogonalEdgeStyle;rounded=0;orthogonalLoop=1;jettySize=auto;html=1;entryX=0.5;entryY=0;entryDx=0;entryDy=0;" edge="1" parent="WIyWlLk6GJQsqaUBKTNV-1" source="_O_r_mw4a40JTsg38hao-189" target="_O_r_mw4a40JTsg38hao-179">
          <mxGeometry relative="1" as="geometry">
            <mxPoint x="705" y="1370" as="targetPoint" />
            <Array as="points">
              <mxPoint x="705" y="1430" />
              <mxPoint x="835" y="1430" />
            </Array>
          </mxGeometry>
        </mxCell>
        <mxCell id="_O_r_mw4a40JTsg38hao-188" value="" style="edgeStyle=orthogonalEdgeStyle;rounded=0;orthogonalLoop=1;jettySize=auto;html=1;entryX=0.5;entryY=1;entryDx=0;entryDy=0;" edge="1" parent="WIyWlLk6GJQsqaUBKTNV-1" source="_O_r_mw4a40JTsg38hao-189" target="_O_r_mw4a40JTsg38hao-179">
          <mxGeometry relative="1" as="geometry">
            <mxPoint x="705" y="1600" as="targetPoint" />
            <Array as="points">
              <mxPoint x="705" y="1540" />
              <mxPoint x="835" y="1540" />
            </Array>
          </mxGeometry>
        </mxCell>
        <mxCell id="_O_r_mw4a40JTsg38hao-189" value="是否成功" style="rhombus;whiteSpace=wrap;html=1;" vertex="1" parent="WIyWlLk6GJQsqaUBKTNV-1">
          <mxGeometry x="670" y="1450" width="70" height="70" as="geometry" />
        </mxCell>
        <mxCell id="_O_r_mw4a40JTsg38hao-190" value="是" style="text;html=1;strokeColor=none;fillColor=none;align=center;verticalAlign=middle;whiteSpace=wrap;rounded=0;" vertex="1" parent="WIyWlLk6GJQsqaUBKTNV-1">
          <mxGeometry x="750" y="1430" width="40" height="20" as="geometry" />
        </mxCell>
        <mxCell id="_O_r_mw4a40JTsg38hao-191" value="否" style="text;html=1;strokeColor=none;fillColor=none;align=center;verticalAlign=middle;whiteSpace=wrap;rounded=0;" vertex="1" parent="WIyWlLk6GJQsqaUBKTNV-1">
          <mxGeometry x="750" y="1520" width="40" height="20" as="geometry" />
        </mxCell>
      </root>
    </mxGraphModel>
  </diagram>
</mxfile>
